<?xml version="1.0" encoding="UTF-8"?>
<svg version="1.1" xmlns="http://www.w3.org/2000/svg" width="500" height="500">
<path d="M0 0 C5.20775823 5.16097966 9.03944324 10.93018015 12.6875 17.25 C13.73676538 19.03267793 14.78625055 20.81522651 15.8359375 22.59765625 C16.3628418 23.49887207 16.88974609 24.40008789 17.43261719 25.32861328 C19.86091914 29.46731732 22.3378046 33.57643303 24.8125 37.6875 C25.81531759 39.35924699 26.81791675 41.03112503 27.8203125 42.703125 C30.04024545 46.4034766 32.26503982 50.10086166 34.4921875 53.796875 C43.06054307 68.02785572 51.50967078 82.32453835 59.88113403 96.671875 C62.2523292 100.73184235 64.64498589 104.77842383 67.046875 108.8203125 C67.68294678 109.89595459 68.31901855 110.97159668 68.97436523 112.07983398 C70.1558896 114.07739324 71.34248791 116.07196474 72.53540039 118.06274414 C78.48729732 128.16137309 83.05848101 137.30302332 80.52734375 149.2265625 C78.44402738 155.68858572 74.29774298 160.89926285 68.5 164.4375 C62.11544134 167.2737174 54.13455902 167.2061818 47.49609375 165.26953125 C37.14874058 160.45909192 31.07264896 149.48237972 26.04296875 139.71484375 C25.10554391 137.8311898 25.10554391 137.8311898 23 137 C20.41864635 136.86870073 17.86370876 136.79750859 15.28076172 136.77197266 C14.48377365 136.76069839 13.68678558 136.74942413 12.86564636 136.73780823 C5.50571713 136.64488842 -1.85488506 136.62879801 -9.21533394 136.63546181 C-14.1597009 136.63919577 -19.10115582 136.61813127 -24.04492188 136.53710938 C-28.82692406 136.45928841 -33.60525311 136.44525986 -38.38775253 136.47547531 C-40.20664299 136.47619569 -42.02568994 136.45455869 -43.84402847 136.40974808 C-52.07657686 136.1152021 -52.07657686 136.1152021 -60 138 C-63.94071275 141.94583999 -65.75200551 145.89655131 -68 151 C-73.29290527 158.74537336 -78.13697136 164.02678603 -87.3828125 166.5234375 C-93.71961739 167.67730346 -99.47776635 166.46859419 -105.08203125 163.34765625 C-111.15287755 159.08199032 -114.88557159 153.7661006 -116.6171875 146.5546875 C-119.01361987 130.56216946 -106.34517339 115.30791131 -98.4296875 102.34228516 C-96.48251834 99.15219961 -94.55006295 95.95346392 -92.625 92.75 C-92.27622803 92.17024414 -91.92745605 91.59048828 -91.56811523 90.99316406 C-88.05456305 85.13076454 -84.62405229 79.22024959 -81.1875 73.3125 C-75.317782 63.22290932 -69.35522705 53.19347942 -63.32568359 43.19873047 C-61.738707 40.56662895 -60.15676514 37.93154343 -58.5769043 35.29516602 C-57.86505592 34.10853688 -57.1517022 32.92280936 -56.43676758 31.73803711 C-54.26563082 28.13575734 -52.13339394 24.51350267 -50.0234375 20.875 C-49.24129883 19.53985352 -49.24129883 19.53985352 -48.44335938 18.17773438 C-47.42819359 16.44449367 -46.42112152 14.70647624 -45.42382812 12.96289062 C-39.96705432 3.69456404 -33.6507065 -2.83784382 -23.125 -5.8125 C-14.61569051 -6.32305857 -7.02250834 -5.12806423 0 0 Z M-26 41 C-27.46094218 43.21346522 -28.81386662 45.39110062 -30.125 47.6875 C-30.9040117 49.01877744 -31.68400475 50.349481 -32.46484375 51.6796875 C-32.87331543 52.37932617 -33.28178711 53.07896484 -33.70263672 53.79980469 C-35.98279377 57.66671762 -38.33988301 61.48632423 -40.6875 65.3125 C-41.15269043 66.07747803 -41.61788086 66.84245605 -42.09716797 67.63061523 C-44.04648106 70.83504656 -46.0098543 74.01503294 -48.06640625 77.15234375 C-51.20529358 81.91693883 -51.20529358 81.91693883 -52.125 87.4375 C-50.80184466 90.45135382 -49.80049111 91.31963015 -47 93 C-44.38231518 93.45165097 -44.38231518 93.45165097 -41.50048828 93.38818359 C-40.39899445 93.39764008 -39.29750061 93.40709656 -38.16262817 93.4168396 C-36.977164 93.41076691 -35.79169983 93.40469421 -34.5703125 93.3984375 C-33.34722382 93.40130768 -32.12413513 93.40417786 -30.86398315 93.40713501 C-28.27666766 93.4091766 -25.68933676 93.40364018 -23.10205078 93.39111328 C-19.1471081 93.37508957 -15.19319171 93.3909457 -11.23828125 93.41015625 C-8.72395608 93.4081733 -6.20963155 93.40432855 -3.6953125 93.3984375 C-1.92318893 93.40754654 -1.92318893 93.40754654 -0.11526489 93.4168396 C7.99172218 93.54552631 7.99172218 93.54552631 15 90 C16.25268097 86.07631334 16.38687783 83.94367469 14.81933594 80.12011719 C14.21379883 79.18844727 13.60826172 78.25677734 12.984375 77.296875 C12.31494873 76.24242187 11.64552246 75.18796875 10.95581055 74.1015625 C10.22078373 72.98421487 9.48550867 71.8670305 8.75 70.75 C7.63811104 69.01731686 6.53288717 67.28050465 5.42802429 65.54333496 C4.68667099 64.37859688 3.94310588 63.21526367 3.19734192 62.05334473 C-0.65180711 56.04021074 -4.17590721 49.85532794 -7.63574219 43.61230469 C-8.04083008 42.89461914 -8.44591797 42.17693359 -8.86328125 41.4375 C-9.20657471 40.81746094 -9.54986816 40.19742188 -9.90356445 39.55859375 C-11.08149225 37.68468175 -11.08149225 37.68468175 -14 36 C-20.15488641 35.20214435 -22.0067842 36.43984615 -26 41 Z " fill="#1B2477" transform="translate(268,160)"/>
<path d="M0 0 C2.95161043 2.75738364 5.03197433 5.43415792 7.03125 8.9375 C7.5878833 9.90389404 8.1445166 10.87028809 8.71801758 11.8659668 C9.30607178 12.90019775 9.89412598 13.93442871 10.5 15 C11.76326943 17.19461716 13.02760734 19.38861961 14.29296875 21.58203125 C14.92122559 22.67338379 15.54948242 23.76473633 16.19677734 24.88916016 C18.68687535 29.18496693 21.24288223 33.43894654 23.8125 37.6875 C30.58123426 48.91134215 37.19519407 60.22513788 43.80410767 71.54348755 C46.2055533 75.65235524 48.62735261 79.74853284 51.05859375 83.83984375 C51.69297363 84.91266602 52.32735352 85.98548828 52.98095703 87.09082031 C54.16002101 89.08432171 55.34419503 91.07481413 56.53466797 93.06152344 C62.48683414 103.16052786 67.05859281 112.30249667 64.52734375 124.2265625 C62.44402738 130.68858572 58.29774298 135.89926285 52.5 139.4375 C46.11544134 142.2737174 38.13455902 142.2061818 31.49609375 140.26953125 C22.07795786 135.89108098 15.84087814 126.3414439 11.875 117.0625 C10.2729289 114.06254332 9.50300734 113.1798502 6.2578125 112.01953125 C4.02678612 111.57814114 1.78909459 111.16952963 -0.453125 110.7890625 C-13.47008397 107.8932192 -24.86398306 98.61558154 -32.26953125 87.83984375 C-36.38276607 81.08968187 -38.08774526 75.90861873 -38 68 C-37.08710205 67.98018066 -36.1742041 67.96036133 -35.23364258 67.93994141 C-31.83217528 67.86163736 -28.43113396 67.77493775 -25.0300293 67.68261719 C-23.56071138 67.64444048 -22.09130361 67.60956818 -20.62182617 67.578125 C-18.50406886 67.53222711 -16.3869241 67.47427628 -14.26953125 67.4140625 C-12.99698486 67.3826416 -11.72443848 67.3512207 -10.41333008 67.31884766 C-7.19107098 67.01784842 -4.90238389 66.38208757 -2 65 C-1.11807772 61.07369675 -0.68870657 58.73749022 -2.27587891 54.97729492 C-2.91960449 53.98834229 -3.56333008 52.99938965 -4.2265625 51.98046875 C-4.92910156 50.87509766 -5.63164062 49.76972656 -6.35546875 48.63085938 C-7.11105586 47.48246489 -7.86757165 46.33468092 -8.625 45.1875 C-10.08322859 42.93583296 -11.52994785 40.67715552 -12.9765625 38.41796875 C-13.66782227 37.33950684 -14.35908203 36.26104492 -15.07128906 35.14990234 C-17.67351293 30.90004256 -19.90501191 26.5182379 -22 22 C-13.68564054 12.36972849 -13.68564054 12.36972849 -10 9 C-9.34 9 -8.68 9 -8 9 C-7.67 8.01 -7.34 7.02 -7 6 C-5.37109375 4.39453125 -5.37109375 4.39453125 -3.4375 2.8125 C-2.47650391 2.01779297 -2.47650391 2.01779297 -1.49609375 1.20703125 C-1.00238281 0.80871094 -0.50867188 0.41039062 0 0 Z " fill="#2A7CDE" transform="translate(284,185)"/>
<path d="M0 0 C1.29808594 0.00064453 2.59617187 0.00128906 3.93359375 0.00195312 C27.68263203 0.10979437 27.68263203 0.10979437 34.125 6.1875 C38.68331511 11.91189572 39.35939128 19.07138078 39.125 26.1875 C38.05468325 32.39154843 35.54463502 36.76786498 31.125 41.1875 C25.80147915 44.79375606 19.01942781 44.30145621 12.83203125 44.2578125 C11.21548404 44.26640075 9.59894598 44.27687817 7.98242188 44.2890625 C5.46536122 44.30568483 2.9503598 44.31263039 0.43334961 44.28710938 C-9.38854726 44.2020964 -16.65399202 44.22370624 -24.6418457 50.68701172 C-27.27723729 52.45776898 -28.76365174 52.49062705 -31.875 52.1875 C-33.08874456 48.01013376 -32.652509 46.07723292 -30.6875 42.25 C-29.49581879 39.69999161 -29.49581879 39.69999161 -28.875 37.1875 C-30.38841997 33.7074066 -30.38841997 33.7074066 -32.875 31.1875 C-34.87454039 25.18887882 -35.12968158 17.5975267 -32.93359375 11.62890625 C-29.7203629 6.30038237 -26.20301867 2.86549291 -20.1328125 1.09765625 C-13.47812574 -0.30036464 -6.76869503 -0.0634774 0 0 Z " fill="#245FD0" transform="translate(352.875,164.8125)"/>
<path d="M0 0 C3.73487777 0.4979837 5.81237635 0.87491756 9 3 C9.66 3.99 10.32 4.98 11 6 C12.66014616 6.36442233 14.32706064 6.69972883 16 7 C17.35439668 9.70879335 17.06501451 12.00933268 17 15 C18.32 15.66 19.64 16.32 21 17 C21.39141851 20.42491198 21.13357065 21.79010327 19.25 24.75 C17.03116777 26.96883223 16.05397571 27.67278832 13 28 C13 28.99 13 29.98 13 31 C8.91668235 31.02950374 4.8333928 31.04696535 0.75 31.0625 C-0.95929688 31.07506836 -0.95929688 31.07506836 -2.703125 31.08789062 C-10.18896398 31.10915721 -17.55200457 30.75312038 -25 30 C-25 29.01 -25 28.02 -25 27 C-25.66 26.67 -26.32 26.34 -27 26 C-22.25 22 -22.25 22 -20 22 C-19.67 20.68 -19.34 19.36 -19 18 C-20.216875 18.103125 -21.43375 18.20625 -22.6875 18.3125 C-26.27437148 18.3125 -26.95411164 18.0327774 -30.0625 15.8125 C-32 13 -32 13 -32 10.4375 C-30.88656108 7.72349263 -30.15769396 6.0138477 -28 4 C-24.625 3 -24.625 3 -21 3 C-18.0625 4.9375 -18.0625 4.9375 -16 7 C-15.67 6.34 -15.34 5.68 -15 5 C-14.34 5.33 -13.68 5.66 -13 6 C-13 5.34 -13 4.68 -13 4 C-9.66666667 4 -6.33333333 4 -3 4 C-1.29467677 2.05990478 -1.29467677 2.05990478 0 0 Z " fill="#2672D9" transform="translate(367,177)"/>
<path d="M0 0 C4.95 0 9.9 0 15 0 C15.495 1.44375 15.99 2.8875 16.5 4.375 C19.79688709 12.64654945 25.69339189 18.85935526 32 25 C33.00974787 26.1582402 34.00914319 27.32555805 35 28.5 C36.81386415 30.64873137 38.63050439 32.63050439 40.625 34.625 C42.95685587 36.95685587 44.98738066 39.391049 47 42 C42.96440965 44.01779517 38.14811744 42.18734178 34 41 C18.44737864 34.17157098 6.90969697 24.42160136 0.59375 8.38671875 C0 6 0 6 0 0 Z " fill="#83ABE4" transform="translate(246,254)"/>
<path d="M0 0 C3.1126711 2.88295055 5.21277937 5.75079154 7.3125 9.4296875 C7.91320312 10.47253906 8.51390625 11.51539063 9.1328125 12.58984375 C10.05707031 14.21599609 10.05707031 14.21599609 11 15.875 C12.22746169 18.01920609 13.45658034 20.16246465 14.6875 22.3046875 C15.25984375 23.30209961 15.8321875 24.29951172 16.421875 25.32714844 C17.69754966 27.48774345 19.01395847 29.56892791 20.4375 31.6328125 C22 34 22 34 22 36 C20 36 20 36 18.5 34.8125 C16.7202899 32.66201696 15.99174544 30.60333178 15 28 C14.46375 27.113125 13.9275 26.22625 13.375 25.3125 C12 23 12 23 12 21 C11.34 21 10.68 21 10 21 C9.62875 19.948125 9.2575 18.89625 8.875 17.8125 C7.11650918 13.61590837 4.54399967 11.75644419 1 9 C1 8.34 1 7.68 1 7 C-2.86708247 7.55244035 -4.36629446 9.21137061 -7 12 C-8.07700389 12.86213365 -9.16062085 13.71605752 -10.25 14.5625 C-11.1575 15.366875 -12.065 16.17125 -13 17 C-13.08527072 20.05704453 -13.08527072 20.05704453 -12.4375 23.25 C-12 27 -12 27 -12.625 30.75 C-12.74875 31.8225 -12.8725 32.895 -13 34 C-12.03030453 35.02941279 -11.02488445 36.0255197 -10 37 C-9.1771245 38.51452833 -8.41027614 40.06022692 -7.6875 41.625 C-5.96664785 45.22362091 -4.0878883 48.39568666 -1.75 51.625 C1.17435679 55.93178 2.25816706 58.75060317 2 64 C-0.01423602 67.5086692 -1.25078976 69.32409158 -5.01171875 70.77734375 C-6.9866534 71.27746583 -8.99405175 71.64410596 -11 72 C-12.485 72.495 -12.485 72.495 -14 73 C-14 72.01 -14 71.02 -14 70 C-16.475 70.99 -16.475 70.99 -19 72 C-18.47731534 74.76276177 -17.89130413 77.3260876 -17 80 C-15.02 79.505 -15.02 79.505 -13 79 C-12.67 79.99 -12.34 80.98 -12 82 C-12.66 82 -13.32 82 -14 82 C-13.34 83.98 -12.68 85.96 -12 88 C-18.00206614 82.33138198 -20.70108896 78.04618866 -23 70 C-27.95 69.67 -32.9 69.34 -38 69 C-38 68.67 -38 68.34 -38 68 C-37.08710205 67.98018066 -36.1742041 67.96036133 -35.23364258 67.93994141 C-31.83217528 67.86163736 -28.43113396 67.77493775 -25.0300293 67.68261719 C-23.56071138 67.64444048 -22.09130361 67.60956818 -20.62182617 67.578125 C-18.50406886 67.53222711 -16.3869241 67.47427628 -14.26953125 67.4140625 C-12.99698486 67.3826416 -11.72443848 67.3512207 -10.41333008 67.31884766 C-7.19107098 67.01784842 -4.90238389 66.38208757 -2 65 C-1.11807772 61.07369675 -0.68870657 58.73749022 -2.27587891 54.97729492 C-2.91960449 53.98834229 -3.56333008 52.99938965 -4.2265625 51.98046875 C-4.92910156 50.87509766 -5.63164062 49.76972656 -6.35546875 48.63085938 C-7.11105586 47.48246489 -7.86757165 46.33468092 -8.625 45.1875 C-10.08322859 42.93583296 -11.52994785 40.67715552 -12.9765625 38.41796875 C-13.66782227 37.33950684 -14.35908203 36.26104492 -15.07128906 35.14990234 C-17.67351293 30.90004256 -19.90501191 26.5182379 -22 22 C-13.68564054 12.36972849 -13.68564054 12.36972849 -10 9 C-9.34 9 -8.68 9 -8 9 C-7.67 8.01 -7.34 7.02 -7 6 C-5.37109375 4.39453125 -5.37109375 4.39453125 -3.4375 2.8125 C-2.47650391 2.01779297 -2.47650391 2.01779297 -1.49609375 1.20703125 C-1.00238281 0.80871094 -0.50867188 0.41039062 0 0 Z " fill="#2D58D1" transform="translate(284,185)"/>
<path d="M0 0 C3.375 -0.125 3.375 -0.125 7 0 C7.66 0.66 8.32 1.32 9 2 C10.2684375 2.2475 10.2684375 2.2475 11.5625 2.5 C12.7690625 2.7475 12.7690625 2.7475 14 3 C15.35439668 5.70879335 15.06501451 8.00933268 15 11 C16.32 11.66 17.64 12.32 19 13 C19.39141851 16.42491198 19.13357065 17.79010327 17.25 20.75 C15.03116777 22.96883223 14.05397571 23.67278832 11 24 C11 24.66 11 25.32 11 26 C6.05 26 1.1 26 -4 26 C-2.75794193 22.27382578 -0.8889325 20.60708543 2 18 C2.66 18 3.32 18 4 18 C3.28436734 15.9837767 3.28436734 15.9837767 2 14 C-0.02463255 13.34786708 -0.02463255 13.34786708 -2 13 C-3.60725635 9.78548731 -3.05748185 6.56387464 -3 3 C-2.01 2.67 -1.02 2.34 0 2 C0 1.34 0 0.68 0 0 Z " fill="#1F9EDC" transform="translate(369,181)"/>
<path d="M0 0 C0.33 0.99 0.66 1.98 1 3 C-0.98 3.99 -2.96 4.98 -5 6 C-4.16666667 8.16666667 -4.16666667 8.16666667 -2 9 C-2 9.66 -2 10.32 -2 11 C-3.98567708 10.93489583 -5.97135417 10.86979167 -7.95703125 10.8046875 C-10.31359719 10.86745538 -10.31359719 10.86745538 -13 13 C-15.39176094 17.69153106 -16.46059411 21.71382228 -17 27 C-14.69 27.66 -12.38 28.32 -10 29 C-10.33 34.28 -10.66 39.56 -11 45 C-9.68 44.34 -8.36 43.68 -7 43 C-2.68313069 41.81379939 1.6178636 41.84782162 6.0625 41.875 C6.83384277 41.87693359 7.60518555 41.87886719 8.39990234 41.88085938 C17.61275629 41.94723175 26.8046308 42.46248364 36 43 C36 43.33 36 43.66 36 44 C34.40514771 43.99045288 34.40514771 43.99045288 32.77807617 43.98071289 C28.78353993 43.96613918 24.79041688 43.99789592 20.79614258 44.04272461 C19.07679082 44.05575853 17.35729861 44.05669662 15.63793945 44.04467773 C5.73782859 43.98422344 -1.73986942 43.97394886 -9.7800293 50.50170898 C-12.40735241 52.27492815 -13.89412117 52.30205092 -17 52 C-18.21374456 47.82263376 -17.777509 45.88973292 -15.8125 42.0625 C-14.62081879 39.51249161 -14.62081879 39.51249161 -14 37 C-15.51341997 33.5199066 -15.51341997 33.5199066 -18 31 C-19.99954039 25.00137882 -20.25468158 17.4100267 -18.05859375 11.44140625 C-15.28707971 6.84538453 -11.98242785 2.87511374 -6.68359375 1.3203125 C-4.4618721 0.81268909 -2.24798457 0.37221531 0 0 Z " fill="#232E97" transform="translate(338,165)"/>
<path d="M0 0 C0.33 -0.66 0.66 -1.32 1 -2 C1.66 -1.67 2.32 -1.34 3 -1 C3 -1.66 3 -2.32 3 -3 C6.3125 -3.3125 6.3125 -3.3125 10 -3 C12 -0.8125 12 -0.8125 13 2 C12.80399754 5.92004926 11.4459302 8.94258725 9 12 C6.3125 12.3125 6.3125 12.3125 4 12 C3.67 11.01 3.34 10.02 3 9 C2.21625 9.53625 1.4325 10.0725 0.625 10.625 C-4.20908087 12.45861688 -8.22389301 11.96469806 -13 10 C-14.80859375 8.06640625 -14.80859375 8.06640625 -16 6 C-15.80983111 2.1966222 -14.63466532 -0.26775448 -12 -3 C-7.12034558 -5.04630669 -3.85170016 -3.16389656 0 0 Z " fill="#3669D3" transform="translate(351,184)"/>
<path d="M0 0 C2.45223962 2.38412185 4.77856555 4.71064658 6.859375 7.4296875 C13.35935342 15.23440611 22.9335886 19.82280522 32 24 C32 24.33 32 24.66 32 25 C-5.62 25.495 -5.62 25.495 -44 26 C-44 25.34 -44 24.68 -44 24 C-40.57103983 22.28551991 -36.63354405 22.73274977 -32.85546875 22.6484375 C-31.93470047 22.62528473 -31.01393219 22.60213196 -30.06526184 22.57827759 C-28.1074487 22.53056511 -26.14957364 22.48534011 -24.19165039 22.44238281 C-21.23752357 22.37612202 -18.28388165 22.29798691 -15.33007812 22.21875 C-5.48032085 21.97786345 4.1925681 21.89778063 14 23 C14 20.36 14 17.72 14 15 C11.69 15.66 9.38 16.32 7 17 C5.875 13.25 5.875 13.25 7 11 C6.505 10.01 6.505 10.01 6 9 C5.175 8.731875 4.35 8.46375 3.5 8.1875 C2.675 7.795625 1.85 7.40375 1 7 C0.20087384 4.54115028 0 2.56909202 0 0 Z " fill="#080648" transform="translate(250,271)"/>
<path d="M0 0 C0.8765625 -0.01224609 1.753125 -0.02449219 2.65625 -0.03710938 C3.49929687 -0.03904297 4.34234375 -0.04097656 5.2109375 -0.04296875 C5.9848584 -0.04707764 6.7587793 -0.05118652 7.55615234 -0.05541992 C9.625 0.1875 9.625 0.1875 12.625 2.1875 C13.62996852 5.20240557 13.72835303 7.22931692 13.6875 10.375 C13.67847656 11.27605469 13.66945312 12.17710937 13.66015625 13.10546875 C13.64855469 13.79253906 13.63695312 14.47960937 13.625 15.1875 C12.305 15.5175 10.985 15.8475 9.625 16.1875 C8.20241188 12.36429443 7.38457724 9.27468695 7.625 5.1875 C6.635 5.1875 5.645 5.1875 4.625 5.1875 C4.63660156 5.81398438 4.64820313 6.44046875 4.66015625 7.0859375 C4.66917969 7.90320313 4.67820313 8.72046875 4.6875 9.5625 C4.69910156 10.37460937 4.71070313 11.18671875 4.72265625 12.0234375 C4.625 14.1875 4.625 14.1875 3.625 16.1875 C2.305 15.8575 0.985 15.5275 -0.375 15.1875 C-0.375 11.8875 -0.375 8.5875 -0.375 5.1875 C-1.695 5.1875 -3.015 5.1875 -4.375 5.1875 C-4.705 8.8175 -5.035 12.4475 -5.375 16.1875 C-6.695 15.8575 -8.015 15.5275 -9.375 15.1875 C-10.29240621 12.06395029 -10.50960306 9.25063562 -10.5 6 C-10.50257813 5.11957031 -10.50515625 4.23914063 -10.5078125 3.33203125 C-10.19126665 -1.77925316 -3.96006007 0.00288634 0 0 Z " fill="#0A0A42" transform="translate(237.375,337.8125)"/>
<path d="M0 0 C3.33219018 2.13601934 3.89315459 3.6327189 5 7.4375 C5 11 5 11 3.1875 13.875 C0.57831885 16.40963312 -0.25088013 16.95114436 -3.875 17.1875 C-6.96075154 17.00235491 -8.51023567 16.77840309 -11 15 C-13.29968563 11.78044012 -13.55348638 8.87440468 -13 5 C-9.2217441 -0.43124286 -6.19885712 -0.88555102 0 0 Z " fill="#2577EB" transform="translate(180,191)"/>
<path d="M0 0 C7.18510987 -0.81001239 11.45683147 0.2422435 17.3828125 4.39453125 C17.91648437 4.92433594 18.45015625 5.45414063 19 6 C19 6.99 19 7.98 19 9 C19.99 9 20.98 9 22 9 C24.08617071 17.10330771 25.28819354 25.17616761 21.25 32.875 C19.06018203 35.91641384 17.12197463 37.94606932 14 40 C13.34 40 12.68 40 12 40 C12 39.34 12 38.68 12 38 C13.66279327 36.9935725 15.32983484 35.99414593 17 35 C18.9451 32.08235 19.45276317 30.37462715 20 27 C18.35 26.34 16.7 25.68 15 25 C15.04125 23.906875 15.0825 22.81375 15.125 21.6875 C15.32074666 17.91107771 15.32074666 17.91107771 13 15 C14.66666667 13.33333333 16.33333333 11.66666667 18 10 C17.34 10 16.68 10 16 10 C16 9.01 16 8.02 16 7 C14.68 7.33 13.36 7.66 12 8 C12 7.34 12 6.68 12 6 C11.34 6 10.68 6 10 6 C10 5.34 10 4.68 10 4 C6.7 3.67 3.4 3.34 0 3 C0 2.01 0 1.02 0 0 Z " fill="#2993C7" transform="translate(368,167)"/>
<path d="M0 0 C1.796875 0.5078125 1.796875 0.5078125 4 2 C5.26835224 4.64724894 6.29443404 7.12043486 7.25 9.875 C7.518125 10.59558594 7.78625 11.31617188 8.0625 12.05859375 C9.33571443 15.5859174 10 18.21341045 10 22 C7.5625 21.625 7.5625 21.625 5 21 C4.67 20.34 4.34 19.68 4 19 C2.10466658 18.53476937 2.10466658 18.53476937 -0.0625 18.375 C-1.361875 18.25125 -2.66125 18.1275 -4 18 C-4.33 19.32 -4.66 20.64 -5 22 C-6.32 22 -7.64 22 -9 22 C-8.35974173 17.36168454 -7.17517905 13.16566154 -5.625 8.75 C-5.20476562 7.52796875 -4.78453125 6.3059375 -4.3515625 5.046875 C-3 2 -3 2 0 0 Z M0 9 C-0.33 10.65 -0.66 12.3 -1 14 C-0.01 14 0.98 14 2 14 C1.67 12.35 1.34 10.7 1 9 C0.67 9 0.34 9 0 9 Z " fill="#0F0E4E" transform="translate(216,332)"/>
<path d="M0 0 C3.05396143 3.49024163 5.07496243 6.94648364 6.97265625 11.1328125 C7.91328427 13.05336952 7.91328427 13.05336952 9.4765625 14.453125 C11.33880017 16.34401248 12.20114614 18.21897619 13.3125 20.625 C15.03335215 24.22362091 16.9121117 27.39568666 19.25 30.625 C22.17435679 34.93178 23.25816706 37.75060317 23 43 C20.98576398 46.5086692 19.74921024 48.32409158 15.98828125 49.77734375 C14.0133466 50.27746583 12.00594825 50.64410596 10 51 C8.515 51.495 8.515 51.495 7 52 C7 51.01 7 50.02 7 49 C5.35 49.66 3.7 50.32 2 51 C2.52268466 53.76276177 3.10869587 56.3260876 4 59 C5.98 58.505 5.98 58.505 8 58 C8.33 58.99 8.66 59.98 9 61 C8.34 61 7.68 61 7 61 C7.66 62.98 8.32 64.96 9 67 C2.99793386 61.33138198 0.29891104 57.04618866 -2 49 C-6.95 48.67 -11.9 48.34 -17 48 C-17 47.67 -17 47.34 -17 47 C-16.08710205 46.98018066 -15.1742041 46.96036133 -14.23364258 46.93994141 C-10.83217528 46.86163736 -7.43113396 46.77493775 -4.0300293 46.68261719 C-2.56071138 46.64444048 -1.09130361 46.60956818 0.37817383 46.578125 C2.49593114 46.53222711 4.6130759 46.47427628 6.73046875 46.4140625 C8.00301514 46.3826416 9.27556152 46.3512207 10.58666992 46.31884766 C13.80892902 46.01784842 16.09761611 45.38208757 19 44 C19.88192228 40.07369675 20.31129343 37.73749022 18.72412109 33.97729492 C18.08039551 32.98834229 17.43666992 31.99938965 16.7734375 30.98046875 C15.71962891 29.32241211 15.71962891 29.32241211 14.64453125 27.63085938 C13.88894414 26.48246489 13.13242835 25.33468092 12.375 24.1875 C10.91677141 21.93583296 9.47005215 19.67715552 8.0234375 17.41796875 C7.33217773 16.33950684 6.64091797 15.26104492 5.92871094 14.14990234 C3.32648707 9.90004256 1.09498809 5.5182379 -1 1 C-0.67 0.67 -0.34 0.34 0 0 Z " fill="#3F5EAF" transform="translate(263,206)"/>
<path d="M0 0 C2.0625 0.4375 2.0625 0.4375 4 1 C4.33 3.64 4.66 6.28 5 9 C5.391875 8.484375 5.78375 7.96875 6.1875 7.4375 C6.785625 6.963125 7.38375 6.48875 8 6 C10.6875 6.3125 10.6875 6.3125 13 7 C11.79618552 9.49361571 10.54571278 11.68143083 9 14 C9.680625 14.5775 10.36125 15.155 11.0625 15.75 C11.701875 16.4925 12.34125 17.235 13 18 C12.75 20.25 12.75 20.25 12 22 C9.11424181 21.60196439 8.17810487 21.20990931 6.25 18.9375 C5.8375 18.298125 5.425 17.65875 5 17 C4.01 19.475 4.01 19.475 3 22 C1.68 21.67 0.36 21.34 -1 21 C-1.02888146 17.68751813 -1.04675799 14.37506833 -1.0625 11.0625 C-1.07087891 10.11697266 -1.07925781 9.17144531 -1.08789062 8.19726562 C-1.09111328 7.29814453 -1.09433594 6.39902344 -1.09765625 5.47265625 C-1.10289307 4.64000244 -1.10812988 3.80734863 -1.11352539 2.94946289 C-1 1 -1 1 0 0 Z " fill="#100F4F" transform="translate(262,332)"/>
<path d="M0 0 C0.99 0.33 1.98 0.66 3 1 C2.50839363 8.04635802 0.06469824 14.6668808 -3 21 C-6 23 -6 23 -8.6875 22.625 C-9.8321875 22.315625 -9.8321875 22.315625 -11 22 C-11 20.68 -11 19.36 -11 18 C-10.01 18 -9.02 18 -8 18 C-8.61988777 14.0327183 -9.89537563 10.6276849 -11.4765625 6.96484375 C-12.09944069 4.62672636 -11.75748734 3.26741211 -11 1 C-9.125 1.125 -9.125 1.125 -7 2 C-5.75 5.0625 -5.75 5.0625 -5 8 C-4.731875 7.4225 -4.46375 6.845 -4.1875 6.25 C-2.98280141 3.9674132 -1.59201885 2.0262058 0 0 Z " fill="#0C0C43" transform="translate(288,337)"/>
<path d="M0 0 C0.66 0 1.32 0 2 0 C1.48607755 4.56523319 0.38334548 7.45899607 -2.1875 11.25 C-2.81011719 12.19746094 -3.43273437 13.14492187 -4.07421875 14.12109375 C-5.32434382 15.98994197 -6.5768129 17.85722514 -7.83203125 19.72265625 C-11.13126866 24.71671937 -11.13126866 24.71671937 -12.0625 30.5 C-11.1416526 33.30191747 -11.1416526 33.30191747 -8 35 C-5.28924456 35.36798693 -5.28924456 35.36798693 -2.23828125 35.4140625 C-1.12001953 35.45273438 -0.00175781 35.49140625 1.15039062 35.53125 C2.31763672 35.5621875 3.48488281 35.593125 4.6875 35.625 C5.86634766 35.66367188 7.04519531 35.70234375 8.25976562 35.7421875 C11.17301977 35.83654391 14.08626607 35.92213161 17 36 C17 38.64 17 41.28 17 44 C15.02 44.495 15.02 44.495 13 45 C12.67 43.02 12.34 41.04 12 39 C11.39003174 38.99589111 10.78006348 38.99178223 10.15161133 38.98754883 C7.37094208 38.95452425 4.59243843 38.88387432 1.8125 38.8125 C0.37293945 38.80379883 0.37293945 38.80379883 -1.09570312 38.79492188 C-8.26638332 38.5716135 -8.26638332 38.5716135 -12.11328125 35.57421875 C-14.89315922 31.78138318 -15.46360228 29.72874322 -15 25 C-13.0625 22.25 -13.0625 22.25 -11 20 C-10.67 19.34 -10.34 18.68 -10 18 C-10.99 17.67 -11.98 17.34 -13 17 C-12.05125 16.814375 -11.1025 16.62875 -10.125 16.4375 C-9.09375 15.963125 -8.0625 15.48875 -7 15 C-5.77030122 11.48809191 -5.77030122 11.48809191 -5 8 C-4.01 7.67 -3.02 7.34 -2 7 C-2 5.68 -2 4.36 -2 3 C-1.34 2.34 -0.68 1.68 0 1 C0 0.67 0 0.34 0 0 Z " fill="#202563" transform="translate(229,217)"/>
<path d="M0 0 C5.416283 5.80316036 8.20689095 12.71840403 8.4375 20.625 C8.10726787 28.18838106 5.9209227 33.91330725 0.70703125 39.45703125 C-5.4554211 45.02721129 -11.46201914 45.64075021 -19.65234375 45.38671875 C-26.76086753 44.56554739 -31.40116138 41.42427119 -36 36 C-41.33530184 29.13490782 -45.31401759 21.85802843 -49 14 C-48.34 14 -47.68 14 -47 14 C-46.23816406 15.37671875 -46.23816406 15.37671875 -45.4609375 16.78125 C-41.70094808 23.510714 -37.96991098 30.06913946 -33 36 C-32.360625 36.763125 -31.72125 37.52625 -31.0625 38.3125 C-25.36969622 42.97024854 -19.99363053 43.52369277 -12.8125 43.37109375 C-8.86737449 42.85055636 -7.03817382 41.49286057 -4 39 C-3.01 39 -2.02 39 -1 39 C-1 38.34 -1 37.68 -1 37 C-0.34 37 0.32 37 1 37 C1.28875 36.278125 1.5775 35.55625 1.875 34.8125 C3 32 3 32 4.125 29.75 C6.3561081 22.73794597 5.00679206 14.94471678 3 8 C1.48537267 5.1665257 1.48537267 5.1665257 0 3 C0 2.01 0 1.02 0 0 Z " fill="#2F7CB2" transform="translate(341,281)"/>
<path d="M0 0 C3.73487777 0.4979837 5.81237635 0.87491756 9 3 C8 4 8 4 4.9375 4.0625 C3.968125 4.041875 2.99875 4.02125 2 4 C2 4.66 2 5.32 2 6 C1.01 6.495 1.01 6.495 0 7 C0 10.3 0 13.6 0 17 C2.31 17.33 4.62 17.66 7 18 C6.65120368 21.25543229 5.97866739 22.01873107 3.4375 24.25 C2.633125 24.8275 1.82875 25.405 1 26 C1 25.34 1 24.68 1 24 C-1.31 23.67 -3.62 23.34 -6 23 C-6 22.01 -6 21.02 -6 20 C-6.33 19.01 -6.66 18.02 -7 17 C-6.525625 16.443125 -6.05125 15.88625 -5.5625 15.3125 C-3.59682153 12.40329587 -4.00079825 10.38291743 -4.16015625 6.97265625 C-3.90527369 3.83324916 -2.15452299 2.15452299 0 0 Z " fill="#228CDD" transform="translate(367,177)"/>
<path d="M0 0 C2.61547262 2.61547262 2.67095831 4.51436263 3.02734375 8.09765625 C3 10 3 10 1.875 11.875 C-0.34055852 13.20433511 -2.56445345 14.14426743 -5 15 C-5 16.65 -5 18.3 -5 20 C-5.99 20.33 -6.98 20.66 -8 21 C-8 22.65 -8 24.3 -8 26 C-8.99 26.33 -9.98 26.66 -11 27 C-11.33 27.66 -11.66 28.32 -12 29 C-13.32 29 -14.64 29 -16 29 C-14.30477268 24.18098302 -11.73948145 19.98500987 -9.125 15.625 C-8.25219312 14.15909883 -7.37979267 12.69295558 -6.5078125 11.2265625 C-6.08790039 10.52176758 -5.66798828 9.81697266 -5.23535156 9.09082031 C-3.45615936 6.07955509 -1.72576251 3.04215811 0 0 Z " fill="#24286C" transform="translate(181,243)"/>
<path d="M0 0 C0.33 0.99 0.66 1.98 1 3 C0.56429688 3.35191406 0.12859375 3.70382813 -0.3203125 4.06640625 C-4.1618721 7.25107579 -7.41862681 10.56010691 -10.59375 14.40234375 C-12.50500781 16.57374498 -14.7054807 18.24891948 -17 20 C-18.35147138 21.31494512 -19.69112542 22.64264858 -21 24 C-21.433125 22.906875 -21.86625 21.81375 -22.3125 20.6875 C-23.50873916 17.86209702 -24.70733935 16.07431202 -27 14 C-27 13.34 -27 12.68 -27 12 C-25.68 11.34 -24.36 10.68 -23 10 C-23 10.99 -23 11.98 -23 13 C-22.01 13 -21.02 13 -20 13 C-20 13.66 -20 14.32 -20 15 C-19.443125 14.525625 -18.88625 14.05125 -18.3125 13.5625 C-16 12 -16 12 -13.4375 11.625 C-10.74508944 11.23893706 -10.74508944 11.23893706 -9.5 8.5 C-8 6 -8 6 -5.3125 5.1875 C-4.549375 5.125625 -3.78625 5.06375 -3 5 C-3 4.01 -3 3.02 -3 2 C-2.01 2 -1.02 2 0 2 C0 1.34 0 0.68 0 0 Z " fill="#16227C" transform="translate(283,183)"/>
<path d="M0 0 C0.66 0 1.32 0 2 0 C2.33 0.99 2.66 1.98 3 3 C2.401875 3.556875 1.80375 4.11375 1.1875 4.6875 C-1.02648932 7.028003 -2.43329025 9.19297836 -4 12 C-7.77164576 18.63711688 -11.69631863 25.17394836 -15.6484375 31.70507812 C-18.88445508 37.07431256 -21.99411316 42.4985819 -25 48 C-25.99 47.67 -26.98 47.34 -28 47 C-21.99659283 36.33512373 -15.75395191 25.82378776 -9.41894531 15.35302734 C-8.11133698 13.18462936 -6.81551938 11.0097033 -5.5234375 8.83203125 C-4.80758504 7.63784492 -4.09146157 6.44382099 -3.375 5.25 C-2.76398438 4.22390625 -2.15296875 3.1978125 -1.5234375 2.140625 C-1.02070313 1.43421875 -0.51796875 0.7278125 0 0 Z " fill="#202463" transform="translate(223,173)"/>
<path d="M0 0 C7.18510987 -0.81001239 11.45683147 0.2422435 17.3828125 4.39453125 C17.91648437 4.92433594 18.45015625 5.45414063 19 6 C19 6.99 19 7.98 19 9 C19.66 9 20.32 9 21 9 C21.22331199 10.58129029 21.42804644 12.16521089 21.625 13.75 C21.79902344 15.07257813 21.79902344 15.07257813 21.9765625 16.421875 C22.00207817 19.22859878 21.44843844 20.63384866 20 23 C18 22 18 22 17.3125 20.4375 C16.85068315 16.83532854 17.4617504 13.58833068 18 10 C17.34 10 16.68 10 16 10 C16 9.01 16 8.02 16 7 C14.68 7.33 13.36 7.66 12 8 C12 7.34 12 6.68 12 6 C11.34 6 10.68 6 10 6 C10 5.34 10 4.68 10 4 C6.7 3.67 3.4 3.34 0 3 C0 2.01 0 1.02 0 0 Z " fill="#2099D7" transform="translate(368,167)"/>
<path d="M0 0 C2.45072331 2.38264766 4.77540289 4.70574936 6.8515625 7.42578125 C12.85493938 14.61891827 21.57185381 19.19727894 30 23 C26.05230775 24.16616729 23.06358505 23.64161869 19 23 C17.33371045 22.96454703 15.66590197 22.94951812 14 23 C14 20.36 14 17.72 14 15 C11.69 15.66 9.38 16.32 7 17 C5.875 13.25 5.875 13.25 7 11 C6.67 10.34 6.34 9.68 6 9 C5.175 8.731875 4.35 8.46375 3.5 8.1875 C2.675 7.795625 1.85 7.40375 1 7 C0.20087384 4.54115028 0 2.56909202 0 0 Z " fill="#0E185B" transform="translate(250,271)"/>
<path d="M0 0 C0.33 1.32 0.66 2.64 1 4 C1.33 4.99 1.66 5.98 2 7 C2.33 6.34 2.66 5.68 3 5 C8.04913087 3.97853691 13.05443363 3.84288249 18.1875 3.875 C18.94981934 3.87693359 19.71213867 3.87886719 20.49755859 3.88085938 C29.6775362 3.94774446 38.83744899 4.46440203 48 5 C48 5.33 48 5.66 48 6 C46.83017578 6.00410889 45.66035156 6.00821777 44.45507812 6.01245117 C40.08614945 6.03433669 35.71810936 6.08872314 31.34960938 6.15258789 C29.46427979 6.17568609 27.57882268 6.1901443 25.69335938 6.19555664 C22.9718554 6.20490642 20.25233476 6.246026 17.53125 6.29296875 C16.28075867 6.28706978 16.28075867 6.28706978 15.00500488 6.28105164 C9.42539767 6.41801393 6.2059863 7.65789124 1.80554199 11.12641907 C1.20971313 11.41470078 0.61388428 11.70298248 0 12 C-1.32 11.34 -2.64 10.68 -4 10 C-2.68 6.7 -1.36 3.4 0 0 Z " fill="#2F50B4" transform="translate(326,203)"/>
<path d="M0 0 C0.99 0 1.98 0 3 0 C3 1.98 3 3.96 3 6 C3.66 6 4.32 6 5 6 C6.33333333 7.33333333 7.66666667 8.66666667 9 10 C8.34 10.66 7.68 11.32 7 12 C7.309375 12.5775 7.61875 13.155 7.9375 13.75 C9 16 9 16 9.375 18 C10.23255811 20.74418595 11.89862271 22.1019818 14 24 C10 24 10 24 8.18359375 22.6015625 C2.7514001 16.4523679 0.23775338 10.59656534 -0.1875 2.375 C-0.125625 1.59125 -0.06375 0.8075 0 0 Z " fill="#2A2F7E" transform="translate(151,298)"/>
<path d="M0 0 C0.66 0.33 1.32 0.66 2 1 C2 1.66 2 2.32 2 3 C2.99 3.33 3.98 3.66 5 4 C6.75 6.375 6.75 6.375 8 9 C7.67 9.99 7.34 10.98 7 12 C3 6.25 3 6.25 3 4 C-0.59264452 2.80245183 -3.22717474 2.66905042 -7 3 C-11.55528523 6.61662039 -14.00519529 11.88622762 -16.8203125 16.86328125 C-17.82967186 18.60579015 -18.90935342 20.30718176 -20 22 C-20.66 22 -21.32 22 -22 22 C-21.54363464 20.603522 -21.08480512 19.2078492 -20.625 17.8125 C-20.36976563 17.03519531 -20.11453125 16.25789063 -19.8515625 15.45703125 C-19.57054687 14.64621094 -19.28953125 13.83539063 -19 13 C-18.73316406 12.1646875 -18.46632812 11.329375 -18.19140625 10.46875 C-14.87613077 3.59906442 -7.58643517 -1.42245659 0 0 Z " fill="#151A57" transform="translate(254,194)"/>
<path d="M0 0 C7.24637681 -0.48309179 7.24637681 -0.48309179 10.4375 1.5625 C12.53567796 4.83565762 13 7.11417724 13 11 C11.23358828 13.80189446 9.96950178 15.51524911 7 17 C3.12015747 17.25303321 0.22635795 17.30454139 -3 15 C-5.29427725 11.78801186 -5.41158832 8.86893019 -5 5 C-3.5 3.125 -3.5 3.125 -2 2 C-2.20625 2.886875 -2.4125 3.77375 -2.625 4.6875 C-3.02828957 8.24989119 -2.69063087 9.88567997 -1 13 C1.73905345 14.36952673 3.97087332 14.12621361 7 14 C7.66 13.67 8.32 13.34 9 13 C9 10.03 9 7.06 9 4 C6.03 3.01 3.06 2.02 0 1 C0 0.67 0 0.34 0 0 Z " fill="#2D4FAA" transform="translate(172,191)"/>
<path d="M0 0 C0.33 0.99 0.66 1.98 1 3 C0.34 3.66 -0.32 4.32 -1 5 C-1.33 5.99 -1.66 6.98 -2 8 C-1.37351563 7.98839844 -0.74703125 7.97679687 -0.1015625 7.96484375 C0.71570313 7.95582031 1.53296875 7.94679688 2.375 7.9375 C3.18710938 7.92589844 3.99921875 7.91429687 4.8359375 7.90234375 C7 8 7 8 9 9 C9 8.34 9 7.68 9 7 C9.66 7 10.32 7 11 7 C11.33 9.31 11.66 11.62 12 14 C9.5625 13.625 9.5625 13.625 7 13 C6.67 12.34 6.34 11.68 6 11 C4.10466658 10.53476937 4.10466658 10.53476937 1.9375 10.375 C0.638125 10.25125 -0.66125 10.1275 -2 10 C-2.33 11.32 -2.66 12.64 -3 14 C-4.32 14 -5.64 14 -7 14 C-6.45660208 9.43545749 -5.20536179 6.0271824 -3 2 C-2.01 2 -1.02 2 0 2 C0 1.34 0 0.68 0 0 Z " fill="#0D0C43" transform="translate(214,340)"/>
<path d="M0 0 C3.1126711 2.88295055 5.21277937 5.75079154 7.3125 9.4296875 C7.91320312 10.47253906 8.51390625 11.51539063 9.1328125 12.58984375 C9.74898438 13.67394531 10.36515625 14.75804687 11 15.875 C12.22746169 18.01920609 13.45658034 20.16246465 14.6875 22.3046875 C15.25984375 23.30209961 15.8321875 24.29951172 16.421875 25.32714844 C17.69754966 27.48774345 19.01395847 29.56892791 20.4375 31.6328125 C22 34 22 34 22 36 C20 36 20 36 18.5 34.8125 C16.7202899 32.66201696 15.99174544 30.60333178 15 28 C14.46375 27.113125 13.9275 26.22625 13.375 25.3125 C12 23 12 23 12 21 C11.34 21 10.68 21 10 21 C9.5875 19.9275 9.175 18.855 8.75 17.75 C7.67474177 15.20199471 6.9674088 13.96839642 4.9375 12 C2.32186953 9.29999435 1.83241754 6.60714269 1 3 C0.34 3 -0.32 3 -1 3 C-0.67 2.01 -0.34 1.02 0 0 Z " fill="#345DAE" transform="translate(284,185)"/>
<path d="M0 0 C3.3 0.33 6.6 0.66 10 1 C9 5 9 5 5.9375 7.25 C4.4834375 8.11625 4.4834375 8.11625 3 9 C3.33 10.32 3.66 11.64 4 13 C2.02 13 0.04 13 -2 13 C-1.34 11.68 -0.68 10.36 0 9 C-0.66 8.67 -1.32 8.34 -2 8 C-2 6.68 -2 5.36 -2 4 C-1.34 4 -0.68 4 0 4 C0 2.68 0 1.36 0 0 Z " fill="#2957D7" transform="translate(338,194)"/>
<path d="M0 0 C5.56818182 0.56818182 5.56818182 0.56818182 7 2 C7.1875 4.9375 7.1875 4.9375 7 8 C5 10 5 10 2 10.3125 C1.01 10.209375 0.02 10.10625 -1 10 C-3 7 -3 7 -2.75 4.4375 C-2 2 -2 2 0 0 Z " fill="#CAEFFB" transform="translate(370,183)"/>
<path d="M0 0 C0 0.99 0 1.98 0 3 C-1.98567708 3.48828125 -3.97135417 3.9765625 -5.95703125 4.46484375 C-7.65683202 4.91010705 -9.33301954 5.44433985 -11 6 C-11 5.01 -11 4.02 -11 3 C-12.65 3.66 -14.3 4.32 -16 5 C-15.47731534 7.76276177 -14.89130413 10.3260876 -14 13 C-12.68 12.67 -11.36 12.34 -10 12 C-9.67 12.99 -9.34 13.98 -9 15 C-9.66 15 -10.32 15 -11 15 C-10.34 16.98 -9.68 18.96 -9 21 C-15.43548964 14.92203756 -18.11154859 10.6446322 -19 2 C-17.19402344 1.90912109 -17.19402344 1.90912109 -15.3515625 1.81640625 C-13.77602923 1.73200268 -12.20050904 1.64735459 -10.625 1.5625 C-9.8309375 1.52318359 -9.036875 1.48386719 -8.21875 1.44335938 C-3.97398779 1.31106596 -3.97398779 1.31106596 0 0 Z " fill="#3367D4" transform="translate(281,252)"/>
<path d="M0 0 C1.98 0.495 1.98 0.495 4 1 C4.66 3.97 5.32 6.94 6 10 C6.99 10 7.98 10 9 10 C8.75 12.375 8.75 12.375 8 15 C5.953125 16.1640625 5.953125 16.1640625 4 17 C3.13227971 14.92227529 2.28126381 12.83756823 1.4375 10.75 C0.96183594 9.58984375 0.48617188 8.4296875 -0.00390625 7.234375 C-0.95770524 4.13733356 -1.20983356 2.92678299 0 0 Z " fill="#0E0E44" transform="translate(277,338)"/>
<path d="M0 0 C2.5 0.25 2.5 0.25 4.5 2.25 C4.75 5.25 4.75 5.25 4.5 8.25 C2.5 10.25 2.5 10.25 0 10.5 C-2.5 10.25 -2.5 10.25 -4.5 8.25 C-4.75 5.25 -4.75 5.25 -4.5 2.25 C-2.5 0.25 -2.5 0.25 0 0 Z " fill="#E8F8FD" transform="translate(357.5,182.75)"/>
<path d="M0 0 C5.56818182 0.56818182 5.56818182 0.56818182 7 2 C7.1875 4.9375 7.1875 4.9375 7 8 C5 10 5 10 1.875 10.125 C0.451875 10.063125 0.451875 10.063125 -1 10 C-2.38125018 7.23749964 -2.19079306 5.05268901 -2 2 C-1.34 1.34 -0.68 0.68 0 0 Z " fill="#D9EBFC" transform="translate(340,183)"/>
<path d="M0 0 C1.98 0.495 1.98 0.495 4 1 C4 5.62 4 10.24 4 15 C2.68 15.33 1.36 15.66 0 16 C-1 15 -1 15 -1.1328125 11.875 C-1.13023437 10.59625 -1.12765625 9.3175 -1.125 8 C-1.12757813 6.72125 -1.13015625 5.4425 -1.1328125 4.125 C-1 1 -1 1 0 0 Z " fill="#0B093E" transform="translate(254,338)"/>
<path d="M0 0 C3.3125 -0.3125 3.3125 -0.3125 7 0 C9.78281121 2.87257931 10.17368253 5.39249898 10.25 9.25 C10 13 10 13 9 14 C1.35051546 14.28865979 1.35051546 14.28865979 -2 13 C-3.60725635 9.78548731 -3.05748185 6.56387464 -3 3 C-2.01 2.67 -1.02 2.34 0 2 C0 1.34 0 0.68 0 0 Z M-0.8125 3.125 C-2.30906118 5.07269207 -2.30906118 5.07269207 -1.75 8.125 C-1.29066476 10.87790841 -1.29066476 10.87790841 0 12 C2.95817107 12.25005386 2.95817107 12.25005386 6 12 C8.30662599 10.11340125 8.30662599 10.11340125 8.3125 7 C8.209375 6.01 8.10625 5.02 8 4 C4.76710503 1.84473668 2.70126359 0.94404329 -0.8125 3.125 Z " fill="#3A9ECC" transform="translate(369,181)"/>
<path d="M0 0 C0.96035156 -0.01224609 1.92070312 -0.02449219 2.91015625 -0.03710938 C9.04509458 -0.04959568 14.43650431 0.63859339 20.375 2.1875 C20.375 2.5175 20.375 2.8475 20.375 3.1875 C7.835 3.1875 -4.705 3.1875 -17.625 3.1875 C-11.39634135 0.07317067 -6.81908706 0.0044686 0 0 Z " fill="#04033B" transform="translate(261.625,292.8125)"/>
<path d="M0 0 C-0.99 0.66 -1.98 1.32 -3 2 C-2.16666667 4.16666667 -2.16666667 4.16666667 0 5 C0 5.66 0 6.32 0 7 C-1.98567708 6.93489583 -3.97135417 6.86979167 -5.95703125 6.8046875 C-8.31359719 6.86745538 -8.31359719 6.86745538 -11 9 C-12.07136051 11.30144109 -13.07989717 13.6340213 -14 16 C-14.33 16 -14.66 16 -15 16 C-15.63936427 10.88508583 -14.28739346 7.90108182 -11.49609375 3.7734375 C-8.35718131 0.05263789 -4.67355727 -1.97727423 0 0 Z " fill="#233FC8" transform="translate(336,169)"/>
<path d="M0 0 C2.79701033 0.17623439 3.79522166 0.77784368 5.703125 2.84765625 C6.21359375 3.57855469 6.7240625 4.30945313 7.25 5.0625 C7.77078125 5.79597656 8.2915625 6.52945312 8.828125 7.28515625 C9.21484375 7.85105469 9.6015625 8.41695313 10 9 C7.18515955 10.40742022 5.43063887 9.66652164 2.375 9.0625 C1.37210937 8.86785156 0.36921875 8.67320312 -0.6640625 8.47265625 C-1.43492187 8.31667969 -2.20578125 8.16070312 -3 8 C-2.34 7.67 -1.68 7.34 -1 7 C-1.309375 5.824375 -1.309375 5.824375 -1.625 4.625 C-1.74875 3.75875 -1.8725 2.8925 -2 2 C-1.34 1.34 -0.68 0.68 0 0 Z " fill="#7EAEEF" transform="translate(283,287)"/>
<path d="M0 0 C1.32 0 2.64 0 4 0 C6.27571116 9.01531729 6.27571116 9.01531729 5.125 13.125 C4.75375 13.74375 4.3825 14.3625 4 15 C1.20294175 13.60147088 1.09085007 11.86348142 0 9 C-0.66 8.01 -1.32 7.02 -2 6 C-1.45945946 1.45945946 -1.45945946 1.45945946 0 0 Z " fill="#2A57DE" transform="translate(266,202)"/>
<path d="M0 0 C0.33 0 0.66 0 1 0 C1.3884811 7.38114092 0.15940249 11.76089627 -4 18 C-4.66 18 -5.32 18 -6 18 C-6 18.66 -6 19.32 -6 20 C-6.66 20 -7.32 20 -8 20 C-8 18.35 -8 16.7 -8 15 C-8.66 14.67 -9.32 14.34 -10 14 C-10 13.34 -10 12.68 -10 12 C-8.02 12 -6.04 12 -4 12 C-3.814375 10.7934375 -3.814375 10.7934375 -3.625 9.5625 C-3.41875 8.716875 -3.2125 7.87125 -3 7 C-2.34 6.67 -1.68 6.34 -1 6 C-0.34227572 2.97065509 -0.34227572 2.97065509 0 0 Z " fill="#21A3DA" transform="translate(346,300)"/>
<path d="M0 0 C4.97685851 0.8932823 7.14066005 4.08212336 10 8 C18.19208409 19.97528456 18.19208409 19.97528456 17.59008789 23.18676758 C17.39535889 23.78513428 17.20062988 24.38350098 17 25 C16.69296143 24.48091064 16.38592285 23.96182129 16.06958008 23.42700195 C14.65820689 21.05085911 13.23548482 18.68170578 11.8125 16.3125 C11.32974609 15.49587891 10.84699219 14.67925781 10.34960938 13.83789062 C7.60147625 9.28226054 4.89387837 5.61722626 1 2 C0.67 1.34 0.34 0.68 0 0 Z " fill="#181E5F" transform="translate(265,160)"/>
<path d="M0 0 C0.86882812 0.0721875 1.73765625 0.144375 2.6328125 0.21875 C3.78523438 0.3115625 4.93765625 0.404375 6.125 0.5 C7.26195312 0.5928125 8.39890625 0.685625 9.5703125 0.78125 C12.97733975 1.05131486 12.97733975 1.05131486 16.3046875 0.90625 C19 1 19 1 21 3 C17.63062701 5.02808782 14.96789912 5.29772548 11.0625 5.3125 C10.04285156 5.32925781 9.02320313 5.34601563 7.97265625 5.36328125 C4.59960812 4.95106906 2.69678362 4.04121191 0 2 C0 1.34 0 0.68 0 0 Z " fill="#248DD8" transform="translate(314,320)"/>
<path d="M0 0 C3.54243452 1.36591169 6.92627929 2.90931484 10.3125 4.625 C11.63701172 5.29402344 11.63701172 5.29402344 12.98828125 5.9765625 C13.65214844 6.31429688 14.31601562 6.65203125 15 7 C11.05230775 8.16616729 8.06358505 7.64161869 4 7 C2.33371045 6.96454703 0.66590197 6.94951812 -1 7 C-0.67 4.69 -0.34 2.38 0 0 Z " fill="#081050" transform="translate(265,287)"/>
<path d="M0 0 C0.66 0 1.32 0 2 0 C2.33 5.28 2.66 10.56 3 16 C3.66 15.67 4.32 15.34 5 15 C5 16.65 5 18.3 5 20 C3.0625 20.5625 3.0625 20.5625 1 21 C0 20 0 20 -0.11352539 18.05053711 C-0.10567017 16.8015564 -0.10567017 16.8015564 -0.09765625 15.52734375 C-0.09443359 14.62822266 -0.09121094 13.72910156 -0.08789062 12.80273438 C-0.07951172 11.85720703 -0.07113281 10.91167969 -0.0625 9.9375 C-0.05798828 8.98810547 -0.05347656 8.03871094 -0.04882812 7.06054688 C-0.0370011 4.70696935 -0.02052025 2.35351523 0 0 Z " fill="#090A3B" transform="translate(261,333)"/>
<path d="M0 0 C0 0.66 0 1.32 0 2 C-1.134375 1.83242187 -2.26875 1.66484375 -3.4375 1.4921875 C-4.95822636 1.28566911 -6.47906611 1.07998443 -8 0.875 C-9.11568359 0.70677734 -9.11568359 0.70677734 -10.25390625 0.53515625 C-15.70247763 -0.17552697 -19.74405599 0.38738082 -25 2 C-22.91938319 -0.48073543 -21.49884124 -1.84559676 -18.375 -2.8125 C-12.07602038 -3.16244331 -5.72735925 -2.86367962 0 0 Z " fill="#1B205D" transform="translate(263,157)"/>
<path d="M0 0 C2.46800047 1.15173355 4.04783565 2.04783565 6 4 C6.1953125 6.1640625 6.1953125 6.1640625 6.125 8.625 C6.10695312 9.44226563 6.08890625 10.25953125 6.0703125 11.1015625 C6.03550781 12.04128906 6.03550781 12.04128906 6 13 C4.0625 13.5625 4.0625 13.5625 2 14 C1 13 1 13 0.9375 10.56640625 C0.97911251 8.56640512 1.02077903 6.56640512 1.0625 4.56640625 C1.18227216 2.01012315 1.18227216 2.01012315 0 0 Z " fill="#120F47" transform="translate(245,340)"/>
<path d="M0 0 C1.41702513 0.14230808 2.8336096 0.28900746 4.25 0.4375 C5.43335938 0.55931641 5.43335938 0.55931641 6.640625 0.68359375 C8.82364639 0.97634993 10.8773182 1.42064419 13 2 C13 2.66 13 3.32 13 4 C7.31632113 5.89455962 2.50196983 5.14711018 -3 3 C-2.67 2.34 -2.34 1.68 -2 1 C-1.34 1.33 -0.68 1.66 0 2 C0 1.34 0 0.68 0 0 Z " fill="#242E8E" transform="translate(169,320)"/>
<path d="M0 0 C2.46412645 1.86933731 2.24495621 3.3953951 2.8125 6.375 C4.10605827 7.74695574 5.43548702 9.08682656 6.8125 10.375 C6.8125 11.035 6.8125 11.695 6.8125 12.375 C3.93583727 11.04438508 1.60113364 9.55212023 -0.8125 7.5 C-1.40289062 7.00757813 -1.99328125 6.51515625 -2.6015625 6.0078125 C-4.30555842 4.25345217 -5.21260387 2.60471292 -6.1875 0.375 C-3.77466168 -0.48672797 -2.49284286 -0.71224082 0 0 Z " fill="#356BD5" transform="translate(278.1875,272.625)"/>
<path d="M0 0 C0.99 0.66 1.98 1.32 3 2 C3.3984375 4.09375 3.3984375 4.09375 3.375 6.5 C3.38273438 7.2940625 3.39046875 8.088125 3.3984375 8.90625 C3.26695312 9.5971875 3.13546875 10.288125 3 11 C2.01 11.66 1.02 12.32 0 13 C-0.99 12.67 -1.98 12.34 -3 12 C-2.01 8.04 -1.02 4.08 0 0 Z " fill="#2558DB" transform="translate(179,193)"/>
<path d="M0 0 C7.92 0 15.84 0 24 0 C24.33 2.31 24.66 4.62 25 7 C23.68 7.33 22.36 7.66 21 8 C20.67 6.02 20.34 4.04 20 2 C13.4 1.67 6.8 1.34 0 1 C0 0.67 0 0.34 0 0 Z " fill="#0C1154" transform="translate(221,254)"/>
<path d="M0 0 C0.99 0.33 1.98 0.66 3 1 C2.79375 1.78375 2.5875 2.5675 2.375 3.375 C2.25125 4.24125 2.1275 5.1075 2 6 C2.66 6.66 3.32 7.32 4 8 C3.071875 8.268125 2.14375 8.53625 1.1875 8.8125 C-1.76240366 9.91148371 -3.05615186 10.62418561 -5 13 C-6 10 -6 10 -4.78515625 7.51953125 C-4.21667969 6.62621094 -3.64820313 5.73289062 -3.0625 4.8125 C-2.49660156 3.91144531 -1.93070313 3.01039063 -1.34765625 2.08203125 C-0.90292969 1.39496094 -0.45820313 0.70789063 0 0 Z " fill="#293283" transform="translate(164,272)"/>
<path d="M0 0 C4.2899656 3.90618586 6.82869137 9.11512247 9.75 14.0625 C10.36488281 15.08150391 10.97976563 16.10050781 11.61328125 17.15039062 C12.18949219 18.12298828 12.76570313 19.09558594 13.359375 20.09765625 C13.89014648 20.98976807 14.42091797 21.88187988 14.96777344 22.80102539 C15.47872559 23.88951782 15.47872559 23.88951782 16 25 C15.67 25.66 15.34 26.32 15 27 C13.5733149 24.85997236 12.14700964 22.71970599 10.72265625 20.578125 C9.61272505 18.91700348 8.49603522 17.26036824 7.37109375 15.609375 C0 4.74671053 0 4.74671053 0 0 Z " fill="#3376AF" transform="translate(320,245)"/>
<path d="M0 0 C3.64252558 4.27378294 6.47092061 8.86703655 9.3125 13.6875 C9.77978516 14.45900391 10.24707031 15.23050781 10.72851562 16.02539062 C11.38303711 17.13237305 11.38303711 17.13237305 12.05078125 18.26171875 C12.44950439 18.93162842 12.84822754 19.60153809 13.2590332 20.29174805 C13.50355225 20.85547119 13.74807129 21.41919434 14 22 C13.67 22.66 13.34 23.32 13 24 C10.98458883 21.0101043 8.99111971 18.00611567 7 15 C6.03126953 13.56140625 6.03126953 13.56140625 5.04296875 12.09375 C4.09357422 10.65515625 4.09357422 10.65515625 3.125 9.1875 C2.52945312 8.29417969 1.93390625 7.40085938 1.3203125 6.48046875 C0 4 0 4 0 0 Z " fill="#3969B1" transform="translate(306,221)"/>
<path d="M0 0 C0.99 0.33 1.98 0.66 3 1 C4.1875 4.5625 4.1875 4.5625 5 8 C3.68 9.32 2.36 10.64 1 12 C-2.06584362 7.70781893 -2.06584362 7.70781893 -1.75 4.3125 C-1 2 -1 2 0 0 Z " fill="#293287" transform="translate(155,287)"/>
<path d="M0 0 C0.33 0.99 0.66 1.98 1 3 C0.56429688 3.35191406 0.12859375 3.70382813 -0.3203125 4.06640625 C-4.24433931 7.31944147 -7.57718318 10.67851679 -10.73828125 14.6796875 C-11.36283203 15.33324219 -11.36283203 15.33324219 -12 16 C-12.66 16 -13.32 16 -14 16 C-13.6875 14.125 -13.6875 14.125 -13 12 C-12.01 11.34 -11.02 10.68 -10 10 C-9.71125 9.319375 -9.4225 8.63875 -9.125 7.9375 C-8 6 -8 6 -5.375 5.25 C-4.199375 5.12625 -4.199375 5.12625 -3 5 C-3 4.01 -3 3.02 -3 2 C-2.01 2 -1.02 2 0 2 C0 1.34 0 0.68 0 0 Z " fill="#112786" transform="translate(283,183)"/>
<path d="M0 0 C3.3125 -0.3125 3.3125 -0.3125 7 0 C9 2.1875 9 2.1875 10 5 C9.6875 7.8125 9.6875 7.8125 9 10 C8.67 10 8.34 10 8 10 C7.34 7.69 6.68 5.38 6 3 C4.35 3 2.7 3 1 3 C0.34 5.31 -0.32 7.62 -1 10 C-1.33 10 -1.66 10 -2 10 C-2.33 7.03 -2.66 4.06 -3 1 C-2.01 1.33 -1.02 1.66 0 2 C0 1.34 0 0.68 0 0 Z " fill="#4182C5" transform="translate(354,181)"/>
<path d="M0 0 C-0.11362262 1.4800841 -0.24122908 2.95910074 -0.375 4.4375 C-0.44460938 5.26121094 -0.51421875 6.08492187 -0.5859375 6.93359375 C-0.72257812 7.61550781 -0.85921875 8.29742187 -1 9 C-1.99 9.495 -1.99 9.495 -3 10 C-7 3.375 -7 3.375 -7 0 C-2.25 -1.125 -2.25 -1.125 0 0 Z " fill="#2B67DF" transform="translate(288,234)"/>
<path d="M0 0 C1.3253382 2.65067639 0.64819751 4.23617248 -0.1953125 6.98046875 C-1.62810769 10.57636735 -3.56048228 13.98969768 -6 17 C-6.66 17 -7.32 17 -8 17 C-3.40562914 2.94122517 -3.40562914 2.94122517 0 0 Z " fill="#1A1E63" transform="translate(240,199)"/>
<path d="M0 0 C1.8125 0.5 1.8125 0.5 4 2 C5.26152609 4.5863924 6.15643045 7.25200829 7 10 C6.01 10.495 6.01 10.495 5 11 C4.67 10.34 4.34 9.68 4 9 C1.97536745 8.34786708 1.97536745 8.34786708 0 8 C-0.79953138 4.71303767 -1.09658936 3.28976808 0 0 Z " fill="#209DDB" transform="translate(337,279)"/>
<path d="M0 0 C0.928125 0.0825 1.85625 0.165 2.8125 0.25 C3.1425 0.91 3.4725 1.57 3.8125 2.25 C1.5025 2.91 -0.8075 3.57 -3.1875 4.25 C-3.26177838 7.59252724 -3.25296953 10.0535914 -2.1875 13.25 C-2.8475 13.25 -3.5075 13.25 -4.1875 13.25 C-5.875 11.5625 -5.875 11.5625 -7.1875 9.25 C-6.93250953 4.15019063 -5.36909949 0.42110584 0 0 Z " fill="#3B5DC0" transform="translate(342.1875,180.75)"/>
<path d="M0 0 C1.125 3.75 1.125 3.75 0 6 C0.31099385 8.57745167 0.31099385 8.57745167 2 11 C4.57406278 12.33159256 7.21825891 13.20429267 10 14 C10 14.33 10 14.66 10 15 C3.23076923 15.30769231 3.23076923 15.30769231 0 13 C-2.30077936 9.7789089 -2.32997475 6.87720334 -2 3 C-1.34 2.01 -0.68 1.02 0 0 Z " fill="#3472B6" transform="translate(169,193)"/>
<path d="M0 0 C2.31 0 4.62 0 7 0 C6.67 2.97 6.34 5.94 6 9 C4.68 9.33 3.36 9.66 2 10 C2 8.68 2 7.36 2 6 C2.66 6 3.32 6 4 6 C3.67 4.68 3.34 3.36 3 2 C2.01 2.33 1.02 2.66 0 3 C0 2.01 0 1.02 0 0 Z " fill="#2982DD" transform="translate(170,192)"/>
<path d="M0 0 C2.625 0.375 2.625 0.375 5 1 C3.98565881 3.53585299 3.34981128 4.78136795 1 6.25 C-1 7 -1 7 -3 7 C-2.25 2.25 -2.25 2.25 0 0 Z " fill="#0B0B3F" transform="translate(270,338)"/>
<path d="M0 0 C0.66 0 1.32 0 2 0 C3.33333333 1.33333333 4.66666667 2.66666667 6 4 C5.34 4.66 4.68 5.32 4 6 C4.350625 6.598125 4.70125 7.19625 5.0625 7.8125 C6 10 6 10 5 13 C-0.74031891 4.738041 -0.74031891 4.738041 0 0 Z " fill="#28349A" transform="translate(154,304)"/>
<path d="M0 0 C1.55136786 2.46393719 2.03039129 3.68089146 1.75 6.625 C1 9 1 9 -1 11 C-2.32 11 -3.64 11 -5 11 C-3.55049545 7.2089881 -1.84827434 3.6125362 0 0 Z " fill="#232987" transform="translate(182,245)"/>
<path d="M0 0 C0.33 0.99 0.66 1.98 1 3 C0.39671875 3.12117187 -0.2065625 3.24234375 -0.828125 3.3671875 C-1.62734375 3.53476563 -2.4265625 3.70234375 -3.25 3.875 C-4.43335938 4.11863281 -4.43335938 4.11863281 -5.640625 4.3671875 C-9.60538585 5.43058362 -12.24244006 6.96668407 -15 10 C-15 7 -15 7 -12.5625 4.4375 C-8.78252306 1.42802196 -4.6923838 0.69864381 0 0 Z " fill="#2734A4" transform="translate(338,165)"/>
<path d="M0 0 C0 1.65 0 3.3 0 5 C-0.66 5 -1.32 5 -2 5 C-1.67 6.98 -1.34 8.96 -1 11 C-2.32 10.67 -3.64 10.34 -5 10 C-5.8125 7.8125 -5.8125 7.8125 -6 5 C-1.77777778 0 -1.77777778 0 0 0 Z " fill="#289AEC" transform="translate(174,193)"/>
<path d="M0 0 C0.66 0 1.32 0 2 0 C1.67 1.65 1.34 3.3 1 5 C0.34 5 -0.32 5 -1 5 C-1 6.65 -1 8.3 -1 10 C-1.99 10.33 -2.98 10.66 -4 11 C-4.33 11.66 -4.66 12.32 -5 13 C-5.66 12.67 -6.32 12.34 -7 12 C-4.97606043 7.7497269 -2.79969805 3.79313929 0 0 Z " fill="#252B8C" transform="translate(174,259)"/>
<path d="M0 0 C2.31 0.66 4.62 1.32 7 2 C6.67 4.64 6.34 7.28 6 10 C2.51668565 6.98112756 1.20842856 4.43090471 0 0 Z " fill="#2433C3" transform="translate(321,192)"/>
<path d="M0 0 C0.78375 0.04125 1.5675 0.0825 2.375 0.125 C1.735625 0.5375 1.09625 0.95 0.4375 1.375 C-1.83490931 3.30310487 -2.22696439 4.23924181 -2.625 7.125 C0.345 7.62 0.345 7.62 3.375 8.125 C3.045 8.785 2.715 9.445 2.375 10.125 C0 10.25 0 10.25 -2.625 10.125 C-4.625 8.125 -4.625 8.125 -4.875 5.125 C-4.55416156 1.2749387 -3.94115238 0.18767392 0 0 Z " fill="#D3EEFC" transform="translate(357.625,182.875)"/>
<path d="M0 0 C1.65 0 3.3 0 5 0 C5 1.98 5 3.96 5 6 C3.02 6 1.04 6 -1 6 C-0.67 4.02 -0.34 2.04 0 0 Z " fill="#FAFCFA" transform="translate(340,185)"/>
<path d="M0 0 C2.31 0 4.62 0 7 0 C7.33 0.66 7.66 1.32 8 2 C8.99 2 9.98 2 11 2 C11 2.66 11 3.32 11 4 C9.02 4 7.04 4 5 4 C5 4.66 5 5.32 5 6 C3.0625 5.25 3.0625 5.25 1 4 C0.25 1.875 0.25 1.875 0 0 Z " fill="#2371DD" transform="translate(349,177)"/>
<path d="M0 0 C0 0.99 0 1.98 0 3 C-1.98567708 3.48828125 -3.97135417 3.9765625 -5.95703125 4.46484375 C-7.65683202 4.91010705 -9.33301954 5.44433985 -11 6 C-11 5.01 -11 4.02 -11 3 C-13.64 3 -16.28 3 -19 3 C-19 2.67 -19 2.34 -19 2 C-17.19402344 1.90912109 -17.19402344 1.90912109 -15.3515625 1.81640625 C-13.77602923 1.73200268 -12.20050904 1.64735459 -10.625 1.5625 C-9.8309375 1.52318359 -9.036875 1.48386719 -8.21875 1.44335938 C-3.97398779 1.31106596 -3.97398779 1.31106596 0 0 Z " fill="#2E5CC6" transform="translate(281,252)"/>
<path d="M0 0 C0.66 0.33 1.32 0.66 2 1 C2 2.32 2 3.64 2 5 C1.01 5.66 0.02 6.32 -1 7 C-2.07136051 9.30144109 -3.07989717 11.6340213 -4 14 C-4.33 14 -4.66 14 -5 14 C-5.74737188 8.02102497 -3.3231898 4.67620279 0 0 Z " fill="#2132BA" transform="translate(326,171)"/>
<path d="M0 0 C3.3 0 6.6 0 10 0 C10 0.99 10 1.98 10 3 C6.7 3 3.4 3 0 3 C0 2.01 0 1.02 0 0 Z " fill="#1A8DD6" transform="translate(368,167)"/>
<path d="M0 0 C2 2 2 2 2 6 C4.64 6 7.28 6 10 6 C10.33 6.99 10.66 7.98 11 9 C6.71 8.34 2.42 7.68 -2 7 C-1.34 6.67 -0.68 6.34 0 6 C-0.2784375 4.7934375 -0.2784375 4.7934375 -0.5625 3.5625 C-0.706875 2.716875 -0.85125 1.87125 -1 1 C-0.67 0.67 -0.34 0.34 0 0 Z " fill="#779DCC" transform="translate(282,288)"/>
<path d="M0 0 C2.47923801 -0.02685095 4.9581884 -0.04676547 7.4375 -0.0625 C8.14455078 -0.07087891 8.85160156 -0.07925781 9.58007812 -0.08789062 C11.38693559 -0.09653588 13.19387603 -0.05220011 15 0 C16 1 16 1 16.1875 3.9375 C16 7 16 7 14 9 C13.67 6.69 13.34 4.38 13 2 C8.71 1.67 4.42 1.34 0 1 C0 0.67 0 0.34 0 0 Z " fill="#78A1DF" transform="translate(246,254)"/>
<path d="M0 0 C1.65 0.33 3.3 0.66 5 1 C4.38125 1.28875 3.7625 1.5775 3.125 1.875 C0.86674235 2.93720042 0.86674235 2.93720042 -1 5 C-0.69347955 7.9425963 -0.32728846 10.34542308 1 13 C0.01 13 -0.98 13 -2 13 C-3.60725635 9.78548731 -3.05748185 6.56387464 -3 3 C-2.01 2.67 -1.02 2.34 0 2 C0 1.34 0 0.68 0 0 Z " fill="#388CC8" transform="translate(369,181)"/>
<path d="M0 0 C3.34726719 1.11575573 3.62079748 1.51344622 5.25 4.4375 C5.8275 5.613125 6.405 6.78875 7 8 C6.67 8.66 6.34 9.32 6 10 C5.34 9.67 4.68 9.34 4 9 C3.34 9.66 2.68 10.32 2 11 C1.34 7.37 0.68 3.74 0 0 Z " fill="#298AC2" transform="translate(334,271)"/>
<path d="M0 0 C0.33 0.99 0.66 1.98 1 3 C0.05874897 4.78513126 -0.89302479 6.56793913 -1.953125 8.28515625 C-3.0892064 10.0644572 -3.0892064 10.0644572 -4.0625 12.375 C-5 14 -5 14 -8 15 C-6.62712658 11.30123909 -4.93644547 8.0485524 -2.875 4.6875 C-2.33617187 3.80449219 -1.79734375 2.92148437 -1.2421875 2.01171875 C-0.83226562 1.34785156 -0.42234375 0.68398438 0 0 Z " fill="#2A3075" transform="translate(173,257)"/>
<path d="M0 0 C3.33557632 2.9905167 5.15083921 5.93184627 7 10 C6.01 11.485 6.01 11.485 5 13 C4.32845067 11.71086513 3.66291141 10.41859796 3 9.125 C2.62875 8.40570313 2.2575 7.68640625 1.875 6.9453125 C1 5 1 5 1 3 C0.34 3 -0.32 3 -1 3 C-0.67 2.01 -0.34 1.02 0 0 Z " fill="#2F55B7" transform="translate(284,185)"/>
<path d="M0 0 C0.99 0.33 1.98 0.66 3 1 C3.80967438 3.91482778 4.21845993 5.46113217 3.0625 8.3125 C2.5365625 9.1478125 2.5365625 9.1478125 2 10 C0 9 0 9 -0.6875 7.25 C-1.05449975 4.60760177 -0.64331769 2.57327078 0 0 Z " fill="#1FA3E1" transform="translate(386,180)"/>
<path d="M0 0 C-0.25 2.375 -0.25 2.375 -1 5 C-3.0625 6.3125 -3.0625 6.3125 -5 7 C-5.66 5.02 -6.32 3.04 -7 1 C-4.50935112 0.31292445 -2.62113708 0 0 0 Z " fill="#151657" transform="translate(286,348)"/>
<path d="M0 0 C2.5625 2.1875 2.5625 2.1875 5 5 C4.8125 7.8125 4.8125 7.8125 4 10 C-0.60921053 4.64736842 -0.60921053 4.64736842 -1 1 C-0.67 0.67 -0.34 0.34 0 0 Z " fill="#298BD6" transform="translate(323,254)"/>
<path d="M0 0 C0.99 0.66 1.98 1.32 3 2 C2.67 3.32 2.34 4.64 2 6 C0.35 6 -1.3 6 -3 6 C-2.625 3.5625 -2.625 3.5625 -2 1 C-1.34 0.67 -0.68 0.34 0 0 Z " fill="#F7FDF7" transform="translate(372,185)"/>
<path d="M0 0 C0.99 0.33 1.98 0.66 3 1 C1.7934375 1.8971875 1.7934375 1.8971875 0.5625 2.8125 C-2.22327984 4.80947276 -2.22327984 4.80947276 -3 8 C-3.66 8 -4.32 8 -5 8 C-5.33 8.99 -5.66 9.98 -6 11 C-6.33 10.01 -6.66 9.02 -7 8 C-5.56640625 5.95703125 -5.56640625 5.95703125 -3.5625 3.8125 C-2.90378906 3.09707031 -2.24507812 2.38164062 -1.56640625 1.64453125 C-1.04949219 1.10183594 -0.53257812 0.55914062 0 0 Z " fill="#181C5C" transform="translate(233,160)"/>
<path d="M0 0 C1.32 0 2.64 0 4 0 C4 0.66 4 1.32 4 2 C4.66 2 5.32 2 6 2 C6.66 1.34 7.32 0.68 8 0 C7.67 1.32 7.34 2.64 7 4 C4.6875 4.625 4.6875 4.625 2 5 C1.01 4.34 0.02 3.68 -1 3 C-0.67 2.01 -0.34 1.02 0 0 Z " fill="#080937" transform="translate(277,355)"/>
<path d="M0 0 C2.97 0.495 2.97 0.495 6 1 C6 4.63 6 8.26 6 12 C4.35649921 8.71299843 3.58678331 6.52069985 3 3 C2.01 2.67 1.02 2.34 0 2 C0 1.34 0 0.68 0 0 Z " fill="#141256" transform="translate(234,340)"/>
<path d="M0 0 C1.65 0 3.3 0 5 0 C5.33 0.99 5.66 1.98 6 3 C5.67 3.66 5.34 4.32 5 5 C3.35 4.67 1.7 4.34 0 4 C0 2.68 0 1.36 0 0 Z " fill="#0D0B34" transform="translate(253,332)"/>
<path d="M0 0 C1 3 1 3 0.00390625 5.26171875 C-0.47175781 6.06222656 -0.94742188 6.86273438 -1.4375 7.6875 C-2.14712891 8.89986328 -2.14712891 8.89986328 -2.87109375 10.13671875 C-3.24363281 10.75160156 -3.61617187 11.36648438 -4 12 C-4.66 12 -5.32 12 -6 12 C-4.68139111 7.38486888 -2.78644563 3.90102388 0 0 Z " fill="#1A2261" transform="translate(204,299)"/>
<path d="M0 0 C0.99 0 1.98 0 3 0 C2.67 3.96 2.34 7.92 2 12 C1.34 12 0.68 12 0 12 C0 8.04 0 4.08 0 0 Z " fill="#0E105A" transform="translate(229,340)"/>
<path d="M0 0 C0.66 0.33 1.32 0.66 2 1 C1.25 2.9375 1.25 2.9375 0 5 C-2.125 5.75 -2.125 5.75 -4 6 C-4 6.66 -4 7.32 -4 8 C-4.66 8 -5.32 8 -6 8 C-5.34 6.02 -4.68 4.04 -4 2 C-3.01 2 -2.02 2 -1 2 C-0.67 1.34 -0.34 0.68 0 0 Z " fill="#262B7C" transform="translate(189,234)"/>
<path d="M0 0 C1.11375 0.185625 2.2275 0.37125 3.375 0.5625 C6.82568861 1.31680657 6.82568861 1.31680657 9 0 C8.34 1.65 7.68 3.3 7 5 C5.35 5 3.7 5 2 5 C1.34 3.35 0.68 1.7 0 0 Z " fill="#4483CB" transform="translate(353,191)"/>
<path d="M0 0 C3 3.75 3 3.75 3 6 C3.66 6.33 4.32 6.66 5 7 C4.67 7.66 4.34 8.32 4 9 C2.68 8.67 1.36 8.34 0 8 C-0.98120464 4.94736336 -0.98120464 3.05263664 0 0 Z " fill="#14125D" transform="translate(219,340)"/>
<path d="M0 0 C2.31 0.33 4.62 0.66 7 1 C7.66 2.65 8.32 4.3 9 6 C8.01 6.495 8.01 6.495 7 7 C6.34 5.68 5.68 4.36 5 3 C3.02 3 1.04 3 -1 3 C-0.67 2.01 -0.34 1.02 0 0 Z " fill="#0A083A" transform="translate(242,338)"/>
<path d="M0 0 C1.32 0 2.64 0 4 0 C4.33 1.98 4.66 3.96 5 6 C3.68 6.33 2.36 6.66 1 7 C0.67 4.69 0.34 2.38 0 0 Z " fill="#101A62" transform="translate(241,255)"/>
<path d="M0 0 C1 4 1 4 1 6 C0.34 6 -0.32 6 -1 6 C-0.67 7.98 -0.34 9.96 0 12 C-1.32 11.34 -2.64 10.68 -4 10 C-2.68 6.7 -1.36 3.4 0 0 Z " fill="#2336C7" transform="translate(326,203)"/>
<path d="M0 0 C1.65 0.33 3.3 0.66 5 1 C3.515 3.475 3.515 3.475 2 6 C1.01 5.34 0.02 4.68 -1 4 C-0.67 2.68 -0.34 1.36 0 0 Z " fill="#273296" transform="translate(155,293)"/>
<path d="M0 0 C1.32 0.33 2.64 0.66 4 1 C4.33 2.32 4.66 3.64 5 5 C4.34 5 3.68 5 3 5 C2.67 5.66 2.34 6.32 2 7 C1.34 6.67 0.68 6.34 0 6 C0 4.02 0 2.04 0 0 Z " fill="#2391DC" transform="translate(328,265)"/>
<path d="M0 0 C2.97 0.495 2.97 0.495 6 1 C6 3.62113708 5.68707555 5.50935112 5 8 C2.74754119 5.31158141 1.11786042 3.35358125 0 0 Z " fill="#2D61DC" transform="translate(274,224)"/>
<path d="M0 0 C-0.33 1.65 -0.66 3.3 -1 5 C-2.65 4.67 -4.3 4.34 -6 4 C-6.33 4.66 -6.66 5.32 -7 6 C-6.67 4.35 -6.34 2.7 -6 1 C-3.92446352 0.4465236 -2.15634036 0 0 0 Z " fill="#1E1B5A" transform="translate(217,338)"/>
<path d="M0 0 C0.66 0.66 1.32 1.32 2 2 C-0.75078884 2.91692961 -2.35948913 3.10886083 -5.1875 3.0625 C-7.0746875 3.0315625 -7.0746875 3.0315625 -9 3 C-9 2.34 -9 1.68 -9 1 C-5.98675805 -0.50662097 -3.31713623 -0.17770373 0 0 Z " fill="#1D9EE1" transform="translate(333,321)"/>
<path d="M0 0 C2 1.375 2 1.375 4 3 C4 3.66 4 4.32 4 5 C4.99 5.33 5.98 5.66 7 6 C7 7.32 7 8.64 7 10 C6.34 10 5.68 10 5 10 C3.7109375 8.3203125 3.7109375 8.3203125 2.375 6.125 C1.92898438 5.40570313 1.48296875 4.68640625 1.0234375 3.9453125 C0 2 0 2 0 0 Z " fill="#317AD5" transform="translate(296,299)"/>
<path d="M0 0 C2.56687367 3.8503105 1.83288724 5.58569763 1 10 C0.01 10.33 -0.98 10.66 -2 11 C-1.34 7.37 -0.68 3.74 0 0 Z " fill="#2F5CBA" transform="translate(284,241)"/>
<path d="M0 0 C0.33 0 0.66 0 1 0 C1.33 2.97 1.66 5.94 2 9 C0.68 8.67 -0.64 8.34 -2 8 C-1.67 7.01 -1.34 6.02 -1 5 C-1 4.01 -1 3.02 -1 2 C-0.67 1.34 -0.34 0.68 0 0 Z " fill="#2782D5" transform="translate(362,191)"/>
<path d="M0 0 C0 0.66 0 1.32 0 2 C2.97 2 5.94 2 9 2 C9 2.33 9 2.66 9 3 C4.05 3 -0.9 3 -6 3 C-2 0 -2 0 0 0 Z " fill="#258DD2" transform="translate(371,204)"/>
<path d="M0 0 C-3.79541663 2.21399303 -7.75629421 3.00980198 -12 4 C-8.41084094 -0.78554541 -5.58334594 -0.37222306 0 0 Z " fill="#141958" transform="translate(250,155)"/>
<path d="M0 0 C1.485 0.99 1.485 0.99 3 2 C3.66 2 4.32 2 5 2 C5 3.32 5 4.64 5 6 C3.68 6 2.36 6 1 6 C0.34 4.35 -0.32 2.7 -1 1 C-0.67 0.67 -0.34 0.34 0 0 Z " fill="#07083C" transform="translate(278,343)"/>
<path d="M0 0 C0.66 0.33 1.32 0.66 2 1 C1.125 7.75 1.125 7.75 0 10 C-0.66 9.67 -1.32 9.34 -2 9 C-1.34 6.03 -0.68 3.06 0 0 Z " fill="#2263E4" transform="translate(178,196)"/>
<path d="M0 0 C0.8971875 0.7734375 0.8971875 0.7734375 1.8125 1.5625 C2.534375 2.036875 3.25625 2.51125 4 3 C4.99 2.67 5.98 2.34 7 2 C6.67 3.32 6.34 4.64 6 6 C4.125 5.8125 4.125 5.8125 2 5 C0.75 2.4375 0.75 2.4375 0 0 Z " fill="#060631" transform="translate(268,348)"/>
<path d="M0 0 C2.25245881 2.68841859 3.88213958 4.64641875 5 8 C4.01 8 3.02 8 2 8 C1.01 5.69 0.02 3.38 -1 1 C-0.67 0.67 -0.34 0.34 0 0 Z " fill="#2A44B9" transform="translate(263,206)"/>
<path d="M0 0 C1.32 0 2.64 0 4 0 C4 1.65 4 3.3 4 5 C2.68 5 1.36 5 0 5 C0 3.35 0 1.7 0 0 Z " fill="#F6FDF8" transform="translate(357,186)"/>
<path d="M0 0 C3.33727786 1.17255709 5.77437487 2.18868404 8 5 C8 5.66 8 6.32 8 7 C4.2047869 5.50902342 2.38957269 3.24299151 0 0 Z " fill="#3084D8" transform="translate(306,315)"/>
<path d="M0 0 C0.66 0 1.32 0 2 0 C1.64950425 3.24208567 1.43778819 4.61527704 -1.0625 6.8125 C-1.701875 7.204375 -2.34125 7.59625 -3 8 C-1.125 2.25 -1.125 2.25 0 0 Z " fill="#141957" transform="translate(223,228)"/>
<path d="M0 0 C-0.33 0.99 -0.66 1.98 -1 3 C-3.64 3 -6.28 3 -9 3 C-6.15236477 0.15236477 -3.96383452 0 0 0 Z " fill="#295EE1" transform="translate(348,195)"/>
</svg>
