<?xml version="1.0" standalone="no"?>
<!DOCTYPE svg PUBLIC "-//W3C//DTD SVG 20010904//EN"
 "http://www.w3.org/TR/2001/REC-SVG-20010904/DTD/svg10.dtd">
<svg version="1.0" xmlns="http://www.w3.org/2000/svg"
 width="500.000000pt" height="500.000000pt" viewBox="0 0 500.000000 500.000000"
 preserveAspectRatio="xMidYMid meet">

<g transform="translate(0.000000,500.000000) scale(0.100000,-0.100000)"
fill="#000000" stroke="none">
<path d="M2450 3441 c-60 -13 -119 -49 -156 -99 -31 -41 -233 -374 -398 -657
-29 -49 -118 -200 -198 -335 -79 -135 -150 -260 -158 -278 -45 -114 22 -269
137 -313 40 -15 133 -13 174 4 51 21 103 79 166 184 l55 93 377 2 376 3 -90
49 c-149 82 -237 186 -268 318 l-12 48 -123 0 c-123 0 -124 0 -153 29 -16 16
-29 38 -29 48 0 11 16 46 36 79 20 32 84 137 141 231 57 95 114 179 126 188
22 16 63 20 92 9 18 -7 64 -76 180 -269 43 -71 89 -146 101 -165 23 -34 31
-84 16 -106 -23 -33 -58 -44 -139 -44 -79 0 -83 -1 -83 -22 0 -47 48 -115 179
-253 92 -96 155 -172 190 -229 55 -91 129 -175 155 -177 24 -2 30 -4 41 -11 6
-3 16 0 23 8 7 8 8 14 2 14 -17 0 -11 58 9 77 18 18 31 114 35 266 0 26 5 47
9 47 5 0 7 43 5 95 -2 73 0 94 10 90 6 -2 12 0 12 5 0 6 -8 10 -17 11 -11 0
-13 3 -5 6 8 3 5 11 -10 25 -13 11 -16 16 -8 12 12 -6 12 -4 -1 12 -9 10 -24
38 -34 61 -10 23 -23 39 -28 36 -6 -3 -7 -2 -4 4 6 9 -61 129 -218 393 -38 63
-97 165 -133 225 -131 224 -167 262 -273 284 -55 12 -58 12 -109 2z m745
-1651 c3 -6 -1 -7 -9 -4 -18 7 -21 14 -7 14 6 0 13 -4 16 -10z"/>
<path d="M3289 3309 c-58 -34 -89 -91 -89 -165 0 -70 11 -108 42 -141 l20 -21
-27 -60 c-42 -95 -18 -107 77 -39 l61 42 181 6 c100 3 173 6 164 7 -20 2 -20
1 -23 62 -2 25 -4 45 -5 45 -2 0 -10 31 -17 68 -6 32 11 57 41 58 11 0 15 3 9
6 -7 2 -13 11 -13 18 0 7 6 16 13 18 7 3 5 6 -5 6 -10 1 -18 5 -18 10 0 5 9 7
21 4 17 -5 20 -2 17 13 -3 10 1 31 9 46 7 15 10 29 5 31 -4 3 -101 5 -217 6
-197 1 -212 0 -246 -20z m176 -163 c13 -19 13 -28 4 -50 -22 -48 -82 -42 -95
10 -14 54 60 87 91 40z m149 8 c22 -21 20 -57 -3 -78 -44 -40 -108 13 -83 68
14 30 61 36 86 10z"/>
<path d="M3771 3304 c0 -11 3 -14 6 -6 3 7 2 16 -1 19 -3 4 -6 -2 -5 -13z"/>
<path d="M1739 3068 c0 -7 -3 -24 -5 -38 -15 -89 -1 -114 54 -91 55 23 63 104
13 130 -27 15 -61 14 -62 -1z"/>
<path d="M3700 3050 c8 -5 20 -10 25 -10 6 0 3 5 -5 10 -8 5 -19 10 -25 10 -5
0 -3 -5 5 -10z"/>
<path d="M3283 2291 c-2 -52 -2 -54 11 -31 8 16 10 31 4 43 -5 9 -5 17 0 17 5
0 9 6 9 13 0 8 -5 14 -11 14 -6 0 -12 -24 -13 -56z"/>
<path d="M2543 1664 c-7 -19 2 -28 22 -21 19 8 19 23 0 31 -9 3 -18 -1 -22
-10z"/>
<path d="M2146 1655 c-12 -13 -66 -157 -66 -178 0 -16 29 -6 35 13 5 16 15 20
50 20 35 0 45 -4 50 -20 7 -21 35 -28 35 -8 0 26 -63 177 -76 182 -7 3 -20 -1
-28 -9z m33 -76 c13 -38 8 -49 -20 -42 -15 4 -19 11 -15 27 3 11 6 27 6 34 0
23 18 12 29 -19z"/>
<path d="M2620 1570 c0 -80 3 -100 14 -100 8 0 18 14 21 32 l7 32 29 -32 c16
-18 33 -32 39 -32 17 0 11 26 -10 45 -11 10 -20 23 -20 30 0 7 9 20 20 30 11
10 20 22 20 27 0 16 -37 8 -55 -12 -25 -27 -35 -17 -35 36 0 32 -4 44 -15 44
-12 0 -15 -18 -15 -100z"/>
<path d="M2317 1612 l-38 -3 3 -67 c2 -54 6 -67 21 -70 14 -3 17 5 17 52 0 53
1 56 25 56 22 0 25 -5 25 -32 0 -48 10 -78 26 -78 10 0 14 15 14 55 0 52 1 55
24 55 23 0 25 -4 28 -52 2 -41 7 -54 21 -56 14 -3 17 4 17 50 0 75 -27 105
-77 87 -13 -5 -33 -5 -45 -1 -13 4 -40 6 -61 4z"/>
<path d="M2865 1587 c-8 -20 -15 -43 -15 -51 0 -36 -20 -22 -35 24 -10 29 -23
50 -31 50 -20 0 -18 -18 11 -88 31 -77 31 -82 -1 -82 -31 0 -28 -24 5 -28 34
-5 45 11 77 103 22 66 26 87 17 96 -10 10 -16 5 -28 -24z"/>
<path d="M2540 1540 c0 -56 3 -70 15 -70 12 0 15 14 15 70 0 56 -3 70 -15 70
-12 0 -15 -14 -15 -70z"/>
</g>
</svg>
